<svg width="459" height="86" viewBox="0 0 459 86" fill="none" xmlns="http://www.w3.org/2000/svg">
<g filter="url(#filter0_d_57_70)">
<path d="M113.232 61.36H113.808V62H93.392V61.36H93.968C94.9067 61.36 95.5893 61.0827 96.016 60.528C96.4853 59.9307 96.72 59.376 96.72 58.864C96.72 58.352 96.6133 57.84 96.4 57.328L93.264 49.456H78.288L74.96 57.328C74.7467 57.8827 74.64 58.416 74.64 58.928C74.64 59.3973 74.8533 59.9307 75.28 60.528C75.7493 61.0827 76.4747 61.36 77.456 61.36H77.968V62H64.272V61.36H64.848C65.8293 61.36 66.8107 61.0613 67.792 60.464C68.7733 59.8667 69.584 58.9707 70.224 57.776L85.008 24.304C87.0133 20.08 88.08 17.2853 88.208 15.92H88.784L107.792 57.648C108.432 58.8853 109.243 59.824 110.224 60.464C111.205 61.0613 112.208 61.36 113.232 61.36ZM79.376 46.768H92.176L85.968 31.024L79.376 46.768ZM172.421 61.36H173.445V62H154.245V61.424H155.205C155.93 61.424 156.549 61.1467 157.061 60.592C157.573 59.9947 157.786 59.3547 157.701 58.672L155.205 35.44L143.173 56.176C141.594 58.8213 140.783 61.1893 140.741 63.28H140.101L123.653 35.632L121.157 58.672C121.071 59.3547 121.285 59.9947 121.797 60.592C122.309 61.1467 122.927 61.424 123.653 61.424H124.613V62H111.236V61.36H112.261C113.455 61.36 114.479 60.9973 115.333 60.272C116.229 59.5467 116.762 58.5653 116.933 57.328L122.245 16.304H122.821L142.661 48.944L161.733 16.304H162.309L167.749 57.328C167.962 58.5653 168.495 59.5467 169.349 60.272C170.245 60.9973 171.269 61.36 172.421 61.36ZM176.333 61.36C177.442 61.36 178.381 60.976 179.149 60.208C179.959 59.3973 180.386 58.4373 180.429 57.328V21.808C180.386 20.6987 179.959 19.76 179.149 18.992C178.381 18.224 177.442 17.84 176.333 17.84H175.501V17.2H194.957L194.893 17.84H194.125C193.015 17.84 192.055 18.224 191.245 18.992C190.434 19.76 190.029 20.6987 190.029 21.808V57.328C190.029 58.4373 190.434 59.3973 191.245 60.208C192.055 60.976 193.015 61.36 194.125 61.36H194.893L194.957 62H175.501V61.36H176.333ZM248.06 17.84H246.972C246.076 17.84 245.287 18.1387 244.604 18.736C243.964 19.2907 243.644 19.9947 243.644 20.848V45.808C243.644 51.056 242.001 55.216 238.716 58.288C235.431 61.36 230.929 62.896 225.212 62.896C218.471 62.896 213.308 61.4027 209.724 58.416C206.14 55.3867 204.348 51.2053 204.348 45.872V21.04C204.348 20.1013 204.007 19.3333 203.324 18.736C202.684 18.1387 201.895 17.84 200.956 17.84H199.932V17.2H218.364V17.84H217.34C216.401 17.84 215.612 18.1387 214.972 18.736C214.332 19.2907 213.991 20.016 213.948 20.912V45.36C213.948 49.8827 215.057 53.4667 217.276 56.112C219.495 58.7573 222.545 60.08 226.428 60.08C230.311 60.08 233.383 58.8427 235.644 56.368C237.905 53.8507 239.057 50.4587 239.1 46.192V20.912C239.1 20.016 238.759 19.2907 238.076 18.736C237.436 18.1387 236.647 17.84 235.708 17.84H234.684V17.2H248.06V17.84ZM253.02 61.36C254.129 61.36 255.068 60.976 255.836 60.208C256.647 59.3973 257.073 58.4373 257.116 57.328V21.872C257.073 20.7627 256.647 19.824 255.836 19.056C255.068 18.2453 254.129 17.84 253.02 17.84H252.188V17.2H271.644L271.58 17.84H270.812C269.703 17.84 268.743 18.2453 267.932 19.056C267.121 19.824 266.716 20.7627 266.716 21.872V59.248H275.1C278.215 59.248 280.817 58.352 282.908 56.56C285.041 54.768 286.62 52.2293 287.644 48.944H288.284L285.34 62H252.188V61.36H253.02ZM292.083 61.36C293.192 61.36 294.131 60.976 294.899 60.208C295.709 59.3973 296.136 58.4373 296.179 57.328V21.872C296.136 20.7627 295.709 19.824 294.899 19.056C294.131 18.2453 293.192 17.84 292.083 17.84H291.251V17.2H310.707L310.643 17.84H309.875C308.765 17.84 307.805 18.2453 306.995 19.056C306.184 19.824 305.779 20.7627 305.779 21.872V59.248H314.163C317.277 59.248 319.88 58.352 321.971 56.56C324.104 54.768 325.683 52.2293 326.707 48.944H327.347L324.403 62H291.251V61.36H292.083ZM331.145 61.36C332.254 61.36 333.193 60.976 333.961 60.208C334.772 59.3973 335.198 58.4373 335.241 57.328V21.808C335.198 20.6987 334.772 19.76 333.961 18.992C333.193 18.224 332.254 17.84 331.145 17.84H330.313V17.2H349.769L349.705 17.84H348.937C347.828 17.84 346.868 18.224 346.057 18.992C345.246 19.76 344.841 20.6987 344.841 21.808V57.328C344.841 58.4373 345.246 59.3973 346.057 60.208C346.868 60.976 347.828 61.36 348.937 61.36H349.705L349.769 62H330.313V61.36H331.145ZM404.601 17.84C403.534 17.84 402.617 18.224 401.849 18.992C401.081 19.7173 400.675 20.6133 400.633 21.68V54.704C400.633 57.5627 400.825 59.9733 401.209 61.936L401.401 62.896H400.825L368.505 32.112V57.52C368.505 58.5867 368.889 59.504 369.657 60.272C370.425 60.9973 371.342 61.36 372.409 61.36H373.625V62H354.233V61.36H355.385C356.494 61.36 357.433 60.9973 358.201 60.272C358.969 59.504 359.353 58.5653 359.353 57.456V24.24C359.353 21.424 359.161 19.0773 358.777 17.2L358.649 16.24H359.225L391.545 47.024V21.744C391.502 20.6347 391.097 19.7173 390.329 18.992C389.561 18.224 388.643 17.84 387.576 17.84H386.425V17.2H405.817V17.84H404.601ZM454.545 61.36H455.121V62H434.705V61.36H435.281C436.219 61.36 436.902 61.0827 437.329 60.528C437.798 59.9307 438.033 59.376 438.033 58.864C438.033 58.352 437.926 57.84 437.713 57.328L434.577 49.456H419.601L416.273 57.328C416.059 57.8827 415.953 58.416 415.953 58.928C415.953 59.3973 416.166 59.9307 416.593 60.528C417.062 61.0827 417.787 61.36 418.769 61.36H419.281V62H405.584V61.36H406.16C407.142 61.36 408.123 61.0613 409.105 60.464C410.086 59.8667 410.897 58.9707 411.536 57.776L426.321 24.304C428.326 20.08 429.393 17.2853 429.521 15.92H430.097L449.105 57.648C449.745 58.8853 450.555 59.824 451.537 60.464C452.518 61.0613 453.521 61.36 454.545 61.36ZM420.689 46.768H433.489L427.281 31.024L420.689 46.768Z" fill="white"/>
</g>
<g filter="url(#filter1_d_57_70)">
<circle cx="31" cy="37" r="30" fill="white"/>
</g>
<g filter="url(#filter2_d_57_70)">
<path d="M39.4 13.924C40.3067 13.924 41.3493 14.1053 42.528 14.468C43.7067 14.7853 44.6587 15.3293 45.384 16.1C45.8827 16.5533 45.8147 16.6893 45.18 16.508C44.5453 16.4173 43.888 16.2813 43.208 16.1C42.5733 15.8733 41.8707 15.76 41.1 15.76C38.2893 15.7147 36.2493 16.5307 34.98 18.208C33.7107 19.84 32.9853 21.9253 32.804 24.464C32.668 26.232 32.6907 28 32.872 29.768C33.0987 31.4907 33.348 33.2133 33.62 34.936C33.892 36.6587 34.1187 38.3813 34.3 40.104C34.5267 41.8267 34.5493 43.572 34.368 45.34C34.3227 45.8387 34.2547 46.1333 34.164 46.224C34.1187 46.3147 34.0507 46.292 33.96 46.156C33.9147 46.02 33.8467 45.8387 33.756 45.612C33.7107 45.34 33.6653 45.1133 33.62 44.932C33.348 43.1187 33.008 41.3053 32.6 39.492C32.192 37.6333 31.8067 35.7747 31.444 33.916C31.0813 32.0573 30.7867 30.1987 30.56 28.34C30.3787 26.4813 30.3787 24.6 30.56 22.696C30.696 21.472 30.9907 20.3387 31.444 19.296C31.8973 18.208 32.4867 17.2787 33.212 16.508C33.9827 15.692 34.8893 15.0573 35.932 14.604C36.9747 14.1507 38.1307 13.924 39.4 13.924ZM27.296 22.9C27.432 21.676 27.7493 20.452 28.248 19.228C28.7467 17.9587 29.404 16.8253 30.22 15.828C31.0813 14.7853 32.1013 13.9693 33.28 13.38C34.504 12.7453 35.864 12.428 37.36 12.428C37.4053 12.428 37.5187 12.4507 37.7 12.496C37.9267 12.496 38.108 12.5187 38.244 12.564C38.4253 12.6093 38.4933 12.6547 38.448 12.7C38.448 12.7453 38.2893 12.7907 37.972 12.836C36.748 13.0627 35.6147 13.4707 34.572 14.06C33.5293 14.6493 32.6227 15.3747 31.852 16.236C31.0813 17.0973 30.4467 18.072 29.948 19.16C29.4947 20.2027 29.2227 21.2907 29.132 22.424C28.9507 24.6 29.0413 26.7987 29.404 29.02C29.7667 31.196 30.1747 33.372 30.628 35.548C31.1267 37.724 31.5347 39.9227 31.852 42.144C32.2147 44.32 32.3053 46.496 32.124 48.672C32.0333 49.5333 31.8293 50.44 31.512 51.392C31.1947 52.344 30.764 53.228 30.22 54.044C29.7213 54.86 29.0867 55.5627 28.316 56.152C27.5453 56.696 26.684 57.036 25.732 57.172C25.0067 57.2627 24.6893 57.24 24.78 57.104C24.916 56.9227 25.188 56.7187 25.596 56.492C27.228 55.5853 28.3387 54.52 28.928 53.296C29.5627 52.072 29.9707 50.5533 30.152 48.74C30.3333 46.6547 30.2427 44.524 29.88 42.348C29.5627 40.172 29.1773 37.996 28.724 35.82C28.2707 33.644 27.8627 31.4907 27.5 29.36C27.1827 27.184 27.1147 25.0307 27.296 22.9ZM25.46 60.572C27.364 60.572 28.9733 60.232 30.288 59.552C31.6027 58.8267 32.6907 57.8973 33.552 56.764C34.4133 55.5853 35.0707 54.248 35.524 52.752C35.9773 51.2107 36.272 49.624 36.408 47.992C36.5893 45.952 36.544 43.912 36.272 41.872C36 39.832 35.6827 37.8147 35.32 35.82C35.0027 33.78 34.708 31.74 34.436 29.7C34.164 27.66 34.1187 25.5973 34.3 23.512C34.4813 21.4267 35.116 19.772 36.204 18.548C37.3373 17.324 39.0147 16.712 41.236 16.712C42.0067 16.712 42.9813 16.848 44.16 17.12C45.384 17.392 46.3813 17.7773 47.152 18.276C47.968 18.82 47.9 18.9787 46.948 18.752C46.404 18.616 45.7013 18.4573 44.84 18.276C43.9787 18.0947 43.3213 18.004 42.868 18.004C41.1 18.004 39.5813 18.3893 38.312 19.16C37.0427 19.9307 36.3173 21.2907 36.136 23.24C35.9093 25.3253 35.9547 27.4107 36.272 29.496C36.5893 31.536 36.952 33.5987 37.36 35.684C37.768 37.7693 38.108 39.8547 38.38 41.94C38.6973 44.0253 38.7653 46.1107 38.584 48.196C38.448 49.9187 38.108 51.596 37.564 53.228C37.02 54.86 36.2493 56.3333 35.252 57.648C34.2547 58.9627 33.008 60.028 31.512 60.844C30.0613 61.6147 28.3387 62 26.344 62C25.8 62 25.0973 61.9093 24.236 61.728C23.3747 61.5467 22.5133 61.32 21.652 61.048C20.7907 60.7307 19.9747 60.368 19.204 59.96C18.4787 59.5067 17.9347 59.0307 17.572 58.532C17.164 58.0787 17.3 57.9653 17.98 58.192C18.7507 58.6 19.68 59.0987 20.768 59.688C21.9013 60.2773 23.4653 60.572 25.46 60.572ZM25.052 58.192C26.1853 58.192 27.228 58.0107 28.18 57.648C29.132 57.2853 30.1067 56.8093 31.104 56.22V56.424C31.104 56.832 30.8773 57.24 30.424 57.648C30.016 58.0107 29.4947 58.3507 28.86 58.668C28.2253 58.9853 27.5 59.2347 26.684 59.416C25.9133 59.5973 25.12 59.688 24.304 59.688C23.9867 59.688 23.556 59.6427 23.012 59.552C22.468 59.416 21.9013 59.2573 21.312 59.076C20.768 58.8493 20.2467 58.6 19.748 58.328C19.2493 58.056 18.9093 57.7387 18.728 57.376C18.2293 56.832 18.0707 56.5373 18.252 56.492C18.4333 56.4013 18.6827 56.4693 19 56.696C19.7253 56.9227 20.5413 57.24 21.448 57.648C22.4 58.0107 23.6013 58.192 25.052 58.192Z" fill="#ED5F6B"/>
</g>
<defs>
<filter id="filter0_d_57_70" x="63.272" y="14.92" width="394.849" height="51.36" filterUnits="userSpaceOnUse" color-interpolation-filters="sRGB">
<feFlood flood-opacity="0" result="BackgroundImageFix"/>
<feColorMatrix in="SourceAlpha" type="matrix" values="0 0 0 0 0 0 0 0 0 0 0 0 0 0 0 0 0 0 127 0" result="hardAlpha"/>
<feOffset dx="1" dy="1"/>
<feGaussianBlur stdDeviation="1"/>
<feComposite in2="hardAlpha" operator="out"/>
<feColorMatrix type="matrix" values="0 0 0 0 0 0 0 0 0 0 0 0 0 0 0 0 0 0 0.35 0"/>
<feBlend mode="normal" in2="BackgroundImageFix" result="effect1_dropShadow_57_70"/>
<feBlend mode="normal" in="SourceGraphic" in2="effect1_dropShadow_57_70" result="shape"/>
</filter>
<filter id="filter1_d_57_70" x="0" y="6" width="64" height="64" filterUnits="userSpaceOnUse" color-interpolation-filters="sRGB">
<feFlood flood-opacity="0" result="BackgroundImageFix"/>
<feColorMatrix in="SourceAlpha" type="matrix" values="0 0 0 0 0 0 0 0 0 0 0 0 0 0 0 0 0 0 127 0" result="hardAlpha"/>
<feOffset dx="1" dy="1"/>
<feGaussianBlur stdDeviation="1"/>
<feComposite in2="hardAlpha" operator="out"/>
<feColorMatrix type="matrix" values="0 0 0 0 0 0 0 0 0 0 0 0 0 0 0 0 0 0 0.35 0"/>
<feBlend mode="normal" in2="BackgroundImageFix" result="effect1_dropShadow_57_70"/>
<feBlend mode="normal" in="SourceGraphic" in2="effect1_dropShadow_57_70" result="shape"/>
</filter>
<filter id="filter2_d_57_70" x="15.96" y="11.428" width="35.416" height="53.572" filterUnits="userSpaceOnUse" color-interpolation-filters="sRGB">
<feFlood flood-opacity="0" result="BackgroundImageFix"/>
<feColorMatrix in="SourceAlpha" type="matrix" values="0 0 0 0 0 0 0 0 0 0 0 0 0 0 0 0 0 0 127 0" result="hardAlpha"/>
<feOffset dx="1" dy="1"/>
<feGaussianBlur stdDeviation="1"/>
<feComposite in2="hardAlpha" operator="out"/>
<feColorMatrix type="matrix" values="0 0 0 0 0 0 0 0 0 0 0 0 0 0 0 0 0 0 0.35 0"/>
<feBlend mode="normal" in2="BackgroundImageFix" result="effect1_dropShadow_57_70"/>
<feBlend mode="normal" in="SourceGraphic" in2="effect1_dropShadow_57_70" result="shape"/>
</filter>
</defs>
</svg>
